<svg width="23" height="23" viewBox="0 0 23 23" fill="none" xmlns="http://www.w3.org/2000/svg">
<g clip-path="url(#clip0_22_209)">
<path d="M9.68345 5.52734C10.3776 5.05903 10.9355 4.63973 11.5332 4.28852C12.5523 3.68934 13.6207 3.56079 14.7582 4.00684C16.8182 4.82882 17.9329 6.34311 18.2134 8.51609C18.3675 9.71317 17.8665 10.7219 17.2151 11.649C16.5337 12.6259 15.763 13.538 15.0527 14.4983C14.0721 15.8134 13.3948 17.2556 13.2176 18.9141C13.1822 19.2401 12.9796 19.5485 12.879 19.8004C12.4183 19.9693 12.104 19.9558 11.8559 19.6105C11.711 19.415 11.5315 19.2444 11.3792 19.0535C10.7132 18.2256 9.88798 17.5845 9.01582 16.9913C7.71201 16.1069 6.36315 15.2897 5.13336 14.3009C4.1116 13.4852 3.28408 12.4517 2.71095 11.2756C2.06545 9.94161 1.96245 8.5229 2.55167 7.09058C3.22667 5.44525 5.55791 3.76904 7.9489 4.47083C8.43782 4.61417 8.8706 4.95589 9.31871 5.22091C9.44969 5.31127 9.57181 5.41387 9.68345 5.52734ZM11.8642 17.5229C11.9309 17.44 11.986 17.3484 12.0281 17.2507C12.4861 15.5576 13.3857 14.1151 14.4913 12.7735C15.1579 11.9644 15.7855 11.1191 16.3695 10.2451C17.2837 8.89528 17.0365 7.67281 16.1283 6.44992C15.8417 6.09578 15.5032 5.78715 15.1243 5.53451C14.3933 5.00827 13.587 4.91054 12.7287 5.20941C11.8486 5.51667 11.0949 5.98351 10.5265 6.74853C10.2088 7.17431 9.74061 7.18547 9.3436 6.8398C9.23813 6.74742 9.14322 6.64362 9.06058 6.5303C8.54665 5.8329 7.81931 5.66889 7.01382 5.69299C6.30874 5.71473 5.62369 5.93304 5.03566 6.32338C4.74087 6.50956 4.49112 6.75912 4.30453 7.05397C3.6311 8.20178 3.46481 9.4257 3.95795 10.6856C4.38882 11.8077 5.13651 12.7798 6.10972 13.4832C6.79146 13.9832 7.48158 14.4539 8.18298 14.9169C9.35309 15.688 10.5473 16.4201 11.5772 17.3844C11.666 17.4436 11.7626 17.4902 11.8642 17.5229Z" fill="#FF0F82"/>
<path d="M11.8642 17.5229C11.7635 17.4892 11.6678 17.4417 11.58 17.3818C10.5502 16.4175 9.35592 15.6854 8.18581 14.9143C7.48156 14.4539 6.7923 13.9761 6.1097 13.4832C5.13619 12.7811 4.38771 11.8104 3.95558 10.6894C3.46394 9.43279 3.62873 8.20552 4.30216 7.05771C4.48875 6.76286 4.7385 6.5133 5.03329 6.32712C5.6216 5.93504 6.30755 5.71541 7.0138 5.69299C7.81929 5.66889 8.54998 5.8314 9.06056 6.5303C9.1432 6.64362 9.23812 6.74742 9.34358 6.8398C9.74059 7.18547 10.2087 7.17431 10.5265 6.74853C11.0948 5.98351 11.852 5.51517 12.7287 5.20941C13.587 4.91054 14.3933 5.00827 15.1243 5.53451C15.5031 5.78715 15.8417 6.09578 16.1283 6.44992C17.0365 7.67281 17.2802 8.88745 16.3695 10.2451C15.784 11.1158 15.1579 11.9644 14.4913 12.7735C13.3857 14.1151 12.4841 15.5532 12.0281 17.2507C11.986 17.3484 11.9309 17.44 11.8642 17.5229Z" fill="#FF0F82"/>
</g>
<defs>
<clipPath id="clip0_22_209">
<rect width="16.9748" height="16.9949" fill="white" transform="matrix(0.912494 -0.409089 0.407875 0.913038 0 6.9442)"/>
</clipPath>
</defs>
</svg>
